<mxfile host="app.diagrams.net" modified="2020-10-07T16:09:29.191Z" agent="5.0 (Macintosh; Intel Mac OS X 10_15_6) AppleWebKit/537.36 (KHTML, like Gecko) Chrome/79.0.3945.130 Safari/537.36" etag="bfmqYGRn5fvycr0-sbXm" version="13.6.6" type="github" pages="2">
  <diagram id="xvaDDSzPtduDtoku5TKO" name="save-result">
    <mxGraphModel dx="946" dy="613" grid="1" gridSize="10" guides="1" tooltips="1" connect="1" arrows="1" fold="1" page="1" pageScale="1" pageWidth="827" pageHeight="1169" background="none" math="0" shadow="0">
      <root>
        <mxCell id="0" />
        <mxCell id="1" parent="0" />
        <mxCell id="YTdMOrOy_9PNuUq5TveW-58" value="" style="shape=table;html=1;whiteSpace=wrap;startSize=0;container=1;collapsible=0;childLayout=tableLayout;" vertex="1" parent="1">
          <mxGeometry x="70" y="180" width="720" height="170" as="geometry" />
        </mxCell>
        <mxCell id="YTdMOrOy_9PNuUq5TveW-59" value="" style="shape=partialRectangle;html=1;whiteSpace=wrap;collapsible=0;dropTarget=0;pointerEvents=0;fillColor=none;top=0;left=0;bottom=0;right=0;points=[[0,0.5],[1,0.5]];portConstraint=eastwest;" vertex="1" parent="YTdMOrOy_9PNuUq5TveW-58">
          <mxGeometry width="720" height="40" as="geometry" />
        </mxCell>
        <mxCell id="YTdMOrOy_9PNuUq5TveW-60" value="Old" style="shape=partialRectangle;html=1;whiteSpace=wrap;connectable=0;overflow=hidden;fillColor=none;top=0;left=0;bottom=0;right=0;fontStyle=1" vertex="1" parent="YTdMOrOy_9PNuUq5TveW-59">
          <mxGeometry width="70" height="40" as="geometry" />
        </mxCell>
        <mxCell id="YTdMOrOy_9PNuUq5TveW-61" value="动态图" style="shape=partialRectangle;html=1;whiteSpace=wrap;connectable=0;overflow=hidden;fillColor=none;top=0;left=0;bottom=0;right=0;" vertex="1" parent="YTdMOrOy_9PNuUq5TveW-59">
          <mxGeometry x="70" width="190" height="40" as="geometry" />
        </mxCell>
        <mxCell id="YTdMOrOy_9PNuUq5TveW-62" value="静态图" style="shape=partialRectangle;html=1;whiteSpace=wrap;connectable=0;overflow=hidden;fillColor=none;top=0;left=0;bottom=0;right=0;" vertex="1" parent="YTdMOrOy_9PNuUq5TveW-59">
          <mxGeometry x="260" width="230" height="40" as="geometry" />
        </mxCell>
        <mxCell id="YTdMOrOy_9PNuUq5TveW-63" value="高层API（调用前述4个API）" style="shape=partialRectangle;html=1;whiteSpace=wrap;connectable=0;overflow=hidden;fillColor=none;top=0;left=0;bottom=0;right=0;" vertex="1" parent="YTdMOrOy_9PNuUq5TveW-59">
          <mxGeometry x="490" width="230" height="40" as="geometry" />
        </mxCell>
        <mxCell id="YTdMOrOy_9PNuUq5TveW-64" value="" style="shape=partialRectangle;html=1;whiteSpace=wrap;collapsible=0;dropTarget=0;pointerEvents=0;fillColor=none;top=0;left=0;bottom=0;right=0;points=[[0,0.5],[1,0.5]];portConstraint=eastwest;" vertex="1" parent="YTdMOrOy_9PNuUq5TveW-58">
          <mxGeometry y="40" width="720" height="60" as="geometry" />
        </mxCell>
        <mxCell id="YTdMOrOy_9PNuUq5TveW-65" value="训练调优" style="shape=partialRectangle;html=1;whiteSpace=wrap;connectable=0;overflow=hidden;fillColor=none;top=0;left=0;bottom=0;right=0;" vertex="1" parent="YTdMOrOy_9PNuUq5TveW-64">
          <mxGeometry width="70" height="60" as="geometry" />
        </mxCell>
        <mxCell id="YTdMOrOy_9PNuUq5TveW-66" value="&lt;b&gt;paddle.save&lt;/b&gt;&lt;br&gt;(*.pdparams, *pdopt)" style="shape=partialRectangle;html=1;whiteSpace=wrap;connectable=0;overflow=hidden;fillColor=none;top=0;left=0;bottom=0;right=0;" vertex="1" parent="YTdMOrOy_9PNuUq5TveW-64">
          <mxGeometry x="70" width="190" height="60" as="geometry" />
        </mxCell>
        <mxCell id="YTdMOrOy_9PNuUq5TveW-67" value="&lt;b&gt;paddle.static.save&lt;/b&gt;&lt;br&gt;(*.pdmodel, *.pdparams, *.pdopt)" style="shape=partialRectangle;html=1;whiteSpace=wrap;connectable=0;overflow=hidden;fillColor=none;top=0;left=0;bottom=0;right=0;" vertex="1" parent="YTdMOrOy_9PNuUq5TveW-64">
          <mxGeometry x="260" width="230" height="60" as="geometry" />
        </mxCell>
        <mxCell id="YTdMOrOy_9PNuUq5TveW-68" value="&lt;b&gt;paddle.Model().save(training=True)&lt;br&gt;&lt;/b&gt;（静: *.pdmodel, *.pdparams, *.pdopt)&lt;br&gt;(动: *.pdparams, *.pdopt)" style="shape=partialRectangle;html=1;whiteSpace=wrap;connectable=0;overflow=hidden;fillColor=none;top=0;left=0;bottom=0;right=0;" vertex="1" parent="YTdMOrOy_9PNuUq5TveW-64">
          <mxGeometry x="490" width="230" height="60" as="geometry" />
        </mxCell>
        <mxCell id="YTdMOrOy_9PNuUq5TveW-69" value="" style="shape=partialRectangle;html=1;whiteSpace=wrap;collapsible=0;dropTarget=0;pointerEvents=0;fillColor=none;top=0;left=0;bottom=0;right=0;points=[[0,0.5],[1,0.5]];portConstraint=eastwest;" vertex="1" parent="YTdMOrOy_9PNuUq5TveW-58">
          <mxGeometry y="100" width="720" height="70" as="geometry" />
        </mxCell>
        <mxCell id="YTdMOrOy_9PNuUq5TveW-70" value="训练部署" style="shape=partialRectangle;html=1;whiteSpace=wrap;connectable=0;overflow=hidden;fillColor=none;top=0;left=0;bottom=0;right=0;" vertex="1" parent="YTdMOrOy_9PNuUq5TveW-69">
          <mxGeometry width="70" height="70" as="geometry" />
        </mxCell>
        <mxCell id="YTdMOrOy_9PNuUq5TveW-71" value="&lt;b&gt;paddle.jit.save&lt;/b&gt;&lt;br&gt;&lt;font color=&quot;#cc0000&quot;&gt;(__model__, __variables__, __variables.info__)&lt;/font&gt;" style="shape=partialRectangle;html=1;whiteSpace=wrap;connectable=0;overflow=hidden;fillColor=none;top=0;left=0;bottom=0;right=0;" vertex="1" parent="YTdMOrOy_9PNuUq5TveW-69">
          <mxGeometry x="70" width="190" height="70" as="geometry" />
        </mxCell>
        <mxCell id="YTdMOrOy_9PNuUq5TveW-72" value="&lt;b&gt;paddle.static.save_inference_model&lt;/b&gt;&lt;br&gt;&lt;font color=&quot;#cc0000&quot;&gt;(__model__, ***)&lt;/font&gt;" style="shape=partialRectangle;html=1;whiteSpace=wrap;connectable=0;overflow=hidden;fillColor=none;top=0;left=0;bottom=0;right=0;" vertex="1" parent="YTdMOrOy_9PNuUq5TveW-69">
          <mxGeometry x="260" width="230" height="70" as="geometry" />
        </mxCell>
        <mxCell id="YTdMOrOy_9PNuUq5TveW-73" value="&lt;b&gt;paddle.Model().save(training=False)&lt;/b&gt;&lt;br&gt;&lt;font color=&quot;#cc0000&quot;&gt;（静: __model__, ***)&lt;br&gt;（动: __model__, __variables__, __variables.info__)&lt;/font&gt;" style="shape=partialRectangle;html=1;whiteSpace=wrap;connectable=0;overflow=hidden;fillColor=none;top=0;left=0;bottom=0;right=0;" vertex="1" parent="YTdMOrOy_9PNuUq5TveW-69">
          <mxGeometry x="490" width="230" height="70" as="geometry" />
        </mxCell>
        <mxCell id="YTdMOrOy_9PNuUq5TveW-74" value="" style="shape=flexArrow;endArrow=classic;html=1;width=16;endSize=6.67;" edge="1" parent="1">
          <mxGeometry width="50" height="50" relative="1" as="geometry">
            <mxPoint x="430" y="354" as="sourcePoint" />
            <mxPoint x="430" y="394" as="targetPoint" />
          </mxGeometry>
        </mxCell>
        <mxCell id="YTdMOrOy_9PNuUq5TveW-41" value="" style="shape=table;html=1;whiteSpace=wrap;startSize=0;container=1;collapsible=0;childLayout=tableLayout;" vertex="1" parent="1">
          <mxGeometry x="70" y="398" width="720" height="170" as="geometry" />
        </mxCell>
        <mxCell id="YTdMOrOy_9PNuUq5TveW-42" value="" style="shape=partialRectangle;html=1;whiteSpace=wrap;collapsible=0;dropTarget=0;pointerEvents=0;fillColor=none;top=0;left=0;bottom=0;right=0;points=[[0,0.5],[1,0.5]];portConstraint=eastwest;" vertex="1" parent="YTdMOrOy_9PNuUq5TveW-41">
          <mxGeometry width="720" height="40" as="geometry" />
        </mxCell>
        <mxCell id="YTdMOrOy_9PNuUq5TveW-43" value="New" style="shape=partialRectangle;html=1;whiteSpace=wrap;connectable=0;overflow=hidden;fillColor=none;top=0;left=0;bottom=0;right=0;fontStyle=1" vertex="1" parent="YTdMOrOy_9PNuUq5TveW-42">
          <mxGeometry width="70" height="40" as="geometry" />
        </mxCell>
        <mxCell id="YTdMOrOy_9PNuUq5TveW-44" value="动态图" style="shape=partialRectangle;html=1;whiteSpace=wrap;connectable=0;overflow=hidden;fillColor=none;top=0;left=0;bottom=0;right=0;" vertex="1" parent="YTdMOrOy_9PNuUq5TveW-42">
          <mxGeometry x="70" width="190" height="40" as="geometry" />
        </mxCell>
        <mxCell id="YTdMOrOy_9PNuUq5TveW-45" value="静态图" style="shape=partialRectangle;html=1;whiteSpace=wrap;connectable=0;overflow=hidden;fillColor=none;top=0;left=0;bottom=0;right=0;" vertex="1" parent="YTdMOrOy_9PNuUq5TveW-42">
          <mxGeometry x="260" width="230" height="40" as="geometry" />
        </mxCell>
        <mxCell id="YTdMOrOy_9PNuUq5TveW-46" value="高层API（调用前述4个API）" style="shape=partialRectangle;html=1;whiteSpace=wrap;connectable=0;overflow=hidden;fillColor=none;top=0;left=0;bottom=0;right=0;" vertex="1" parent="YTdMOrOy_9PNuUq5TveW-42">
          <mxGeometry x="490" width="230" height="40" as="geometry" />
        </mxCell>
        <mxCell id="YTdMOrOy_9PNuUq5TveW-47" value="" style="shape=partialRectangle;html=1;whiteSpace=wrap;collapsible=0;dropTarget=0;pointerEvents=0;fillColor=none;top=0;left=0;bottom=0;right=0;points=[[0,0.5],[1,0.5]];portConstraint=eastwest;" vertex="1" parent="YTdMOrOy_9PNuUq5TveW-41">
          <mxGeometry y="40" width="720" height="60" as="geometry" />
        </mxCell>
        <mxCell id="YTdMOrOy_9PNuUq5TveW-48" value="训练调优" style="shape=partialRectangle;html=1;whiteSpace=wrap;connectable=0;overflow=hidden;fillColor=none;top=0;left=0;bottom=0;right=0;" vertex="1" parent="YTdMOrOy_9PNuUq5TveW-47">
          <mxGeometry width="70" height="60" as="geometry" />
        </mxCell>
        <mxCell id="YTdMOrOy_9PNuUq5TveW-49" value="&lt;b&gt;paddle.save&lt;/b&gt;&lt;br&gt;(推荐: *.pdparams, *pdopt)" style="shape=partialRectangle;html=1;whiteSpace=wrap;connectable=0;overflow=hidden;fillColor=none;top=0;left=0;bottom=0;right=0;" vertex="1" parent="YTdMOrOy_9PNuUq5TveW-47">
          <mxGeometry x="70" width="190" height="60" as="geometry" />
        </mxCell>
        <mxCell id="YTdMOrOy_9PNuUq5TveW-50" value="&lt;b&gt;paddle.static.save&lt;/b&gt;&lt;br&gt;(*.pdmodel, *.pdparams, *.pdopt)" style="shape=partialRectangle;html=1;whiteSpace=wrap;connectable=0;overflow=hidden;fillColor=none;top=0;left=0;bottom=0;right=0;" vertex="1" parent="YTdMOrOy_9PNuUq5TveW-47">
          <mxGeometry x="260" width="230" height="60" as="geometry" />
        </mxCell>
        <mxCell id="YTdMOrOy_9PNuUq5TveW-51" value="&lt;b&gt;paddle.Model().save(training=True)&lt;/b&gt;&lt;br&gt;（静: *.pdmodel, *.pdparams, *.pdopt)&lt;br&gt;(动: *.pdparams, *.pdopt)" style="shape=partialRectangle;html=1;whiteSpace=wrap;connectable=0;overflow=hidden;fillColor=none;top=0;left=0;bottom=0;right=0;" vertex="1" parent="YTdMOrOy_9PNuUq5TveW-47">
          <mxGeometry x="490" width="230" height="60" as="geometry" />
        </mxCell>
        <mxCell id="YTdMOrOy_9PNuUq5TveW-52" value="" style="shape=partialRectangle;html=1;whiteSpace=wrap;collapsible=0;dropTarget=0;pointerEvents=0;fillColor=none;top=0;left=0;bottom=0;right=0;points=[[0,0.5],[1,0.5]];portConstraint=eastwest;" vertex="1" parent="YTdMOrOy_9PNuUq5TveW-41">
          <mxGeometry y="100" width="720" height="70" as="geometry" />
        </mxCell>
        <mxCell id="YTdMOrOy_9PNuUq5TveW-53" value="训练部署" style="shape=partialRectangle;html=1;whiteSpace=wrap;connectable=0;overflow=hidden;fillColor=none;top=0;left=0;bottom=0;right=0;" vertex="1" parent="YTdMOrOy_9PNuUq5TveW-52">
          <mxGeometry width="70" height="70" as="geometry" />
        </mxCell>
        <mxCell id="YTdMOrOy_9PNuUq5TveW-54" value="&lt;b&gt;paddle.jit.save&lt;/b&gt;&lt;br&gt;&lt;font color=&quot;#009900&quot;&gt;(*.pdparams, *.pdiparams, *pdiparams,info)&lt;/font&gt;" style="shape=partialRectangle;html=1;whiteSpace=wrap;connectable=0;overflow=hidden;fillColor=none;top=0;left=0;bottom=0;right=0;" vertex="1" parent="YTdMOrOy_9PNuUq5TveW-52">
          <mxGeometry x="70" width="190" height="70" as="geometry" />
        </mxCell>
        <mxCell id="YTdMOrOy_9PNuUq5TveW-55" value="&lt;b&gt;paddle.static.save_inference_model&lt;/b&gt;&lt;br&gt;&lt;font color=&quot;#009900&quot;&gt;(*.pdmodel, *.pdiparams)&lt;/font&gt;" style="shape=partialRectangle;html=1;whiteSpace=wrap;connectable=0;overflow=hidden;fillColor=none;top=0;left=0;bottom=0;right=0;" vertex="1" parent="YTdMOrOy_9PNuUq5TveW-52">
          <mxGeometry x="260" width="230" height="70" as="geometry" />
        </mxCell>
        <mxCell id="YTdMOrOy_9PNuUq5TveW-56" value="&lt;b&gt;paddle.Model().save(training=False)&lt;/b&gt;&lt;br&gt;&lt;font color=&quot;#009900&quot;&gt;（静: *.pdmodel, *.pdiparams)&lt;br&gt;（动: *.pdmodel, *.pdiparams, *pdiparams,info)&lt;/font&gt;" style="shape=partialRectangle;html=1;whiteSpace=wrap;connectable=0;overflow=hidden;fillColor=none;top=0;left=0;bottom=0;right=0;" vertex="1" parent="YTdMOrOy_9PNuUq5TveW-52">
          <mxGeometry x="490" width="230" height="70" as="geometry" />
        </mxCell>
      </root>
    </mxGraphModel>
  </diagram>
  <diagram id="1FsQqkTSoeEPBoj7rmE-" name="load-format">
    <mxGraphModel dx="946" dy="613" grid="1" gridSize="10" guides="1" tooltips="1" connect="1" arrows="1" fold="1" page="1" pageScale="1" pageWidth="827" pageHeight="1169" math="0" shadow="0">
      <root>
        <mxCell id="_--g6zr_8hUKSwCfKJKK-0" />
        <mxCell id="_--g6zr_8hUKSwCfKJKK-1" parent="_--g6zr_8hUKSwCfKJKK-0" />
        <mxCell id="rIjoqvmZRXCzbxlgm6ze-1" value="" style="rounded=0;whiteSpace=wrap;html=1;fillColor=none;dashed=1;" vertex="1" parent="_--g6zr_8hUKSwCfKJKK-1">
          <mxGeometry x="377.5" y="310" width="122.5" height="40" as="geometry" />
        </mxCell>
        <mxCell id="rIjoqvmZRXCzbxlgm6ze-2" value="" style="rounded=0;whiteSpace=wrap;html=1;fillColor=none;dashed=1;" vertex="1" parent="_--g6zr_8hUKSwCfKJKK-1">
          <mxGeometry x="377.5" y="380" width="222.5" height="70" as="geometry" />
        </mxCell>
        <mxCell id="rIjoqvmZRXCzbxlgm6ze-13" value="" style="edgeStyle=orthogonalEdgeStyle;rounded=0;orthogonalLoop=1;jettySize=auto;html=1;entryX=0;entryY=0.5;entryDx=0;entryDy=0;" edge="1" parent="_--g6zr_8hUKSwCfKJKK-1" source="_--g6zr_8hUKSwCfKJKK-3" target="_--g6zr_8hUKSwCfKJKK-6">
          <mxGeometry relative="1" as="geometry">
            <Array as="points">
              <mxPoint x="180" y="310" />
              <mxPoint x="180" y="360" />
            </Array>
          </mxGeometry>
        </mxCell>
        <mxCell id="rIjoqvmZRXCzbxlgm6ze-14" style="edgeStyle=orthogonalEdgeStyle;rounded=0;orthogonalLoop=1;jettySize=auto;html=1;exitX=1;exitY=0.5;exitDx=0;exitDy=0;entryX=0;entryY=0.5;entryDx=0;entryDy=0;" edge="1" parent="_--g6zr_8hUKSwCfKJKK-1" source="_--g6zr_8hUKSwCfKJKK-3" target="_--g6zr_8hUKSwCfKJKK-5">
          <mxGeometry relative="1" as="geometry">
            <Array as="points">
              <mxPoint x="180" y="310" />
              <mxPoint x="180" y="250" />
            </Array>
          </mxGeometry>
        </mxCell>
        <mxCell id="_--g6zr_8hUKSwCfKJKK-3" value="输入一个path str&lt;br&gt;（例如：mnist）" style="rounded=0;whiteSpace=wrap;html=1;" vertex="1" parent="_--g6zr_8hUKSwCfKJKK-1">
          <mxGeometry x="60" y="290" width="110" height="40" as="geometry" />
        </mxCell>
        <mxCell id="_--g6zr_8hUKSwCfKJKK-5" value="save保存得到一个结果" style="rounded=0;whiteSpace=wrap;html=1;" vertex="1" parent="_--g6zr_8hUKSwCfKJKK-1">
          <mxGeometry x="200" y="230" width="150" height="40" as="geometry" />
        </mxCell>
        <mxCell id="_--g6zr_8hUKSwCfKJKK-6" value="save保存得到多个结果" style="rounded=0;whiteSpace=wrap;html=1;" vertex="1" parent="_--g6zr_8hUKSwCfKJKK-1">
          <mxGeometry x="200" y="340" width="150" height="40" as="geometry" />
        </mxCell>
        <mxCell id="_--g6zr_8hUKSwCfKJKK-7" value="paddle.save" style="text;html=1;strokeColor=none;fillColor=none;align=center;verticalAlign=middle;whiteSpace=wrap;rounded=0;" vertex="1" parent="_--g6zr_8hUKSwCfKJKK-1">
          <mxGeometry x="364" y="240" width="120" height="20" as="geometry" />
        </mxCell>
        <mxCell id="_--g6zr_8hUKSwCfKJKK-8" value="paddle.static.save" style="text;html=1;strokeColor=none;fillColor=none;align=center;verticalAlign=middle;whiteSpace=wrap;rounded=0;" vertex="1" parent="_--g6zr_8hUKSwCfKJKK-1">
          <mxGeometry x="398.75" y="320" width="80" height="20" as="geometry" />
        </mxCell>
        <mxCell id="_--g6zr_8hUKSwCfKJKK-11" value="paddle.static.save_inference_model" style="text;html=1;strokeColor=none;fillColor=none;align=center;verticalAlign=middle;whiteSpace=wrap;rounded=0;" vertex="1" parent="_--g6zr_8hUKSwCfKJKK-1">
          <mxGeometry x="377.5" y="390" width="220" height="20" as="geometry" />
        </mxCell>
        <mxCell id="_--g6zr_8hUKSwCfKJKK-12" value="paddle.jit.save" style="text;html=1;strokeColor=none;fillColor=none;align=center;verticalAlign=middle;whiteSpace=wrap;rounded=0;" vertex="1" parent="_--g6zr_8hUKSwCfKJKK-1">
          <mxGeometry x="380.5" y="420" width="100" height="20" as="geometry" />
        </mxCell>
        <mxCell id="rIjoqvmZRXCzbxlgm6ze-0" value="" style="rounded=0;whiteSpace=wrap;html=1;fillColor=none;dashed=1;" vertex="1" parent="_--g6zr_8hUKSwCfKJKK-1">
          <mxGeometry x="377.5" y="230" width="93" height="40" as="geometry" />
        </mxCell>
        <mxCell id="rIjoqvmZRXCzbxlgm6ze-5" value="mnist.pdparams/pdopt" style="text;html=1;strokeColor=none;fillColor=none;align=center;verticalAlign=middle;whiteSpace=wrap;rounded=0;dashed=1;fontStyle=1" vertex="1" parent="_--g6zr_8hUKSwCfKJKK-1">
          <mxGeometry x="510" y="240" width="130" height="20" as="geometry" />
        </mxCell>
        <mxCell id="rIjoqvmZRXCzbxlgm6ze-6" value="mnist.pdmodel, mnist.pdparams, mnist.pdopt" style="text;html=1;strokeColor=none;fillColor=none;align=center;verticalAlign=middle;whiteSpace=wrap;rounded=0;dashed=1;fontStyle=1" vertex="1" parent="_--g6zr_8hUKSwCfKJKK-1">
          <mxGeometry x="520" y="305" width="140" height="50" as="geometry" />
        </mxCell>
        <mxCell id="rIjoqvmZRXCzbxlgm6ze-8" value="mnist (dir)&lt;br&gt;&amp;nbsp; &amp;nbsp;- __model__&lt;br&gt;&amp;nbsp; &amp;nbsp;- 零散参数文件 | __variables__" style="text;html=1;strokeColor=none;fillColor=none;align=left;verticalAlign=middle;whiteSpace=wrap;rounded=0;dashed=1;fontStyle=1" vertex="1" parent="_--g6zr_8hUKSwCfKJKK-1">
          <mxGeometry x="630" y="390" width="210" height="50" as="geometry" />
        </mxCell>
        <mxCell id="rIjoqvmZRXCzbxlgm6ze-11" value="" style="whiteSpace=wrap;html=1;shape=mxgraph.basic.cloud_callout;dashed=1;fillColor=none;" vertex="1" parent="_--g6zr_8hUKSwCfKJKK-1">
          <mxGeometry x="660" y="130" width="210" height="120" as="geometry" />
        </mxCell>
        <mxCell id="rIjoqvmZRXCzbxlgm6ze-12" value="&lt;meta charset=&quot;utf-8&quot;&gt;&lt;span style=&quot;color: rgb(0, 0, 0); font-family: helvetica; font-size: 12px; font-style: normal; font-weight: 400; letter-spacing: normal; text-align: center; text-indent: 0px; text-transform: none; word-spacing: 0px; background-color: rgb(248, 249, 250); display: inline; float: none;&quot;&gt;一个path与一个存储结果对应，无歧义，但是却增加了后缀引入了歧义&lt;/span&gt;" style="text;whiteSpace=wrap;html=1;" vertex="1" parent="_--g6zr_8hUKSwCfKJKK-1">
          <mxGeometry x="692" y="151" width="160" height="30" as="geometry" />
        </mxCell>
      </root>
    </mxGraphModel>
  </diagram>
</mxfile>
